#N canvas 0 0 1024 549 10;
#X obj 325 4 tgl 15 0 empty empty empty 17 7 0 10 -262144 -1 -1 1 1
;
#X obj 175 196 noise~;
#X obj 175 240 *~;
#X obj 236 256 vline~;
#X obj 235 209 pack f f;
#X msg 235 231 1 \$1 \, 0 \$2 \$1;
#X obj 187 109 sel 0;
#X obj 176 309 dac~;
#X obj 40 136 sel 0;
#X msg 40 158 1 5 \, 0 64 5;
#X obj 40 180 vline~;
#X obj 40 224 osc~;
#X obj 40 246 *~;
#X obj 17 319 dac~;
#X obj 40 81 counter 3;
#X obj 516 89 counter 4;
#X obj 516 155 mtof;
#X obj 516 177 pack f f;
#X obj 692 251 vline~;
#X obj 691 204 pack f f;
#X msg 691 226 1 \$1 \, 0 \$2 \$1;
#X obj 511 316 *~;
#X obj 450 512 dac~;
#X obj 684 50 sel 0;
#X obj 802 123 sel 0;
#X obj 516 199 line~;
#X obj 468 258 osc~;
#X obj 541 250 osc~;
#X obj 541 272 *~;
#X obj 692 273 *~;
#X obj 802 101 random 2;
#X obj 248 109 sel 0;
#X obj 758 68 sel 0;
#X obj 758 46 random 6;
#X obj 596 228 *~;
#X obj 459 438 hip~ 30;
#X obj 132 142 +~ 1;
#X obj 342 132 sel 0;
#X obj 342 177 vline~;
#X obj 342 221 osc~;
#X obj 342 243 *~;
#X obj 332 294 dac~;
#X msg 342 155 1 5 \, 0 32 5;
#X obj 342 199 *~ 400;
#X obj 342 110 random 5;
#X obj 102 187 tgl 15 0 empty empty empty 17 7 0 10 -262144 -1 -1 0
1;
#X obj 63 366 *~;
#X obj 82 305 vline~;
#X obj 52 412 dac~;
#X obj 102 207 sel 1;
#X msg 82 285 1 10 \, 0 100 10;
#X obj 187 409 phasor~;
#X obj 334 480 vline~;
#X obj 333 433 pack f f;
#X msg 333 455 1 \$1 \, 0 \$2 \$1;
#X obj 187 451 *~;
#X obj 178 500 dac~;
#X obj 187 377 mtof;
#X obj 244 409 pack f f;
#X obj 244 431 line~;
#X obj 379 133 expr random(800 \, 1800);
#N canvas 232 59 559 300 ggg 1;
#X obj 52 73 gemwin;
#X msg 18 5 size 500 500 \, create \, 1;
#X obj 99 72 gemhead;
#X obj 99 94 pix_sig2pix;
#X obj 99 116 pix_texture;
#X obj 168 12 inlet~;
#X obj 218 12 inlet~;
#X obj 263 12 inlet~;
#X msg 63 141 quality 0;
#X obj 97 178 rotateXYZ;
#X obj 187 92 env~;
#X obj 221 173 * 3.6;
#X obj 227 92 env~;
#X obj 284 131 * 3.6;
#X obj 267 92 env~;
#X obj 324 131 * 3.6;
#X obj 66 212 translateXYZ;
#X msg 16 26 destroy;
#X obj 78 251 cube 1.5;
#X obj 189 232 / 100;
#X obj 401 50 gemhead;
#X obj 409 94 pix_sig2pix;
#X obj 435 184 pix_texture;
#X msg 373 141 quality 0;
#X obj 452 134 pix_kaleidoscope;
#X obj 189 254 + 1;
#X obj 435 206 square 5;
#X obj 291 168 phasor~ 0.1;
#X obj 291 200 *~ 360;
#X obj 291 222 snapshot~;
#X obj 358 11 metro 100;
#X obj 333 9 tgl 15 0 empty empty empty 17 7 0 10 -262144 -1 -1 1 1
;
#X obj 3 187 block~ 4096;
#X floatatom 486 33 5 0 0 0 - - -, f 5;
#X obj 361 220 *~ 360;
#X obj 361 242 snapshot~;
#X obj 359 198 phasor~ 0.2;
#X connect 1 0 0 0;
#X connect 2 0 3 0;
#X connect 3 0 4 0;
#X connect 4 0 9 0;
#X connect 5 0 10 0;
#X connect 5 0 3 0;
#X connect 5 0 21 2;
#X connect 6 0 12 0;
#X connect 6 0 3 1;
#X connect 6 0 21 0;
#X connect 7 0 14 0;
#X connect 7 0 3 2;
#X connect 7 0 21 1;
#X connect 8 0 4 0;
#X connect 9 0 16 0;
#X connect 10 0 11 0;
#X connect 10 0 19 0;
#X connect 12 0 13 0;
#X connect 12 0 19 0;
#X connect 14 0 15 0;
#X connect 14 0 19 0;
#X connect 16 0 18 0;
#X connect 17 0 0 0;
#X connect 19 0 25 0;
#X connect 20 0 21 0;
#X connect 21 0 24 0;
#X connect 22 0 26 0;
#X connect 23 0 22 0;
#X connect 24 0 22 0;
#X connect 25 0 18 1;
#X connect 27 0 28 0;
#X connect 28 0 29 0;
#X connect 29 0 9 2;
#X connect 30 0 29 0;
#X connect 30 0 35 0;
#X connect 31 0 30 0;
#X connect 33 0 24 1;
#X connect 34 0 35 0;
#X connect 35 0 9 3;
#X connect 36 0 34 0;
#X restore 402 513 pd ggg;
#X obj 108 358 sel 0;
#X obj 396 313 sel 0;
#X obj 108 336 random 20;
#X obj 103 257 bp~ 2000 2.5;
#X obj 413 396 clip~ -1 1;
#X obj 248 87 random 10;
#X obj 96 456 >~;
#X obj 802 145 expr random(400 \, 2200);
#X obj 248 67 del 128;
#X obj 325 27 metro 256;
#X obj 187 87 random 1;
#X obj 516 133 expr (($f1*7)%36)+ 12*2;
#X obj 459 416 *~ 0.2;
#X obj 758 26 del 128;
#X obj 132 164 *~ 3500;
#X obj 188 132 expr random(1 \, 5) \; random(20 \, 100) \; random(-20
\, 20) \; random(1 \, 3);
#X obj 679 24 random 1;
#X obj 459 458 lop~ 2000;
#X obj 516 111 expr if(random(0 \, 2)==1 \, random(0 \, 5) \, $f1)
;
#X obj 132 120 osc~ 1.11;
#X obj 187 356 expr (($f1*7)%24)+ 12*5;
#X obj 330 335 expr random(5 \, 10) \; random(500 \, 1000) \; random(-10
\, 10) \; random(0 \, 50);
#X obj 187 473 *~ 0.15;
#X obj 468 236 *~ 2;
#X obj 541 228 *~ 3;
#X obj 679 130 expr random(5 \, 10) \; random(12 \, 256) \; random(-10
\, 10) \; random(0 \, 50);
#X obj 396 291 random 7;
#X obj 111 407 phasor~ 2;
#X obj 342 265 *~ 0.3;
#X obj 40 202 *~ 250;
#X obj 24 281 *~ 0.25;
#X obj 63 388 *~ 0.4;
#X obj 175 262 *~ 0.25;
#X obj 175 218 vcf~ 5;
#X connect 0 0 71 0;
#X connect 1 0 65 0;
#X connect 1 0 95 0;
#X connect 2 0 94 0;
#X connect 3 0 2 1;
#X connect 4 0 5 0;
#X connect 5 0 3 0;
#X connect 6 0 70 0;
#X connect 6 0 77 0;
#X connect 8 0 9 0;
#X connect 8 0 45 0;
#X connect 9 0 10 0;
#X connect 10 0 12 1;
#X connect 10 0 91 0;
#X connect 11 0 12 0;
#X connect 12 0 92 0;
#X connect 14 0 8 0;
#X connect 15 0 80 0;
#X connect 16 0 17 0;
#X connect 17 0 25 0;
#X connect 18 0 21 1;
#X connect 18 0 29 0;
#X connect 18 0 29 1;
#X connect 19 0 20 0;
#X connect 20 0 18 0;
#X connect 21 0 66 0;
#X connect 23 0 30 0;
#X connect 23 0 75 0;
#X connect 23 0 87 0;
#X connect 24 0 69 0;
#X connect 25 0 85 0;
#X connect 25 0 86 0;
#X connect 26 0 21 0;
#X connect 27 0 28 0;
#X connect 28 0 26 0;
#X connect 29 0 34 0;
#X connect 30 0 24 0;
#X connect 31 0 77 0;
#X connect 32 0 80 0;
#X connect 32 0 87 0;
#X connect 33 0 32 0;
#X connect 34 0 28 1;
#X connect 35 0 79 0;
#X connect 36 0 76 0;
#X connect 37 0 42 0;
#X connect 37 0 60 0;
#X connect 38 0 40 1;
#X connect 38 0 43 0;
#X connect 39 0 40 0;
#X connect 40 0 90 0;
#X connect 42 0 38 0;
#X connect 43 0 39 0;
#X connect 44 0 37 0;
#X connect 45 0 49 0;
#X connect 46 0 93 0;
#X connect 47 0 46 1;
#X connect 49 0 50 0;
#X connect 50 0 47 0;
#X connect 51 0 68 1;
#X connect 52 0 55 1;
#X connect 53 0 54 0;
#X connect 54 0 52 0;
#X connect 55 0 61 1;
#X connect 55 0 84 0;
#X connect 57 0 58 0;
#X connect 58 0 59 0;
#X connect 59 0 51 0;
#X connect 60 0 43 1;
#X connect 62 0 50 0;
#X connect 63 0 83 0;
#X connect 64 0 62 0;
#X connect 65 0 46 0;
#X connect 66 0 61 2;
#X connect 66 0 74 0;
#X connect 67 0 31 0;
#X connect 68 0 55 0;
#X connect 69 0 34 1;
#X connect 70 0 67 0;
#X connect 71 0 14 0;
#X connect 71 0 15 0;
#X connect 71 0 44 0;
#X connect 71 0 64 0;
#X connect 71 0 72 0;
#X connect 71 0 78 0;
#X connect 71 0 88 0;
#X connect 72 0 6 0;
#X connect 73 0 16 0;
#X connect 74 0 35 0;
#X connect 75 0 33 0;
#X connect 76 0 95 1;
#X connect 77 0 4 0;
#X connect 77 1 4 1;
#X connect 78 0 23 0;
#X connect 79 0 22 0;
#X connect 79 0 22 1;
#X connect 80 0 73 0;
#X connect 80 0 82 0;
#X connect 81 0 36 0;
#X connect 82 0 57 0;
#X connect 83 0 53 0;
#X connect 83 1 53 1;
#X connect 83 3 58 1;
#X connect 84 0 56 0;
#X connect 84 0 56 1;
#X connect 85 0 26 0;
#X connect 86 0 27 0;
#X connect 87 0 19 0;
#X connect 87 1 19 1;
#X connect 87 3 17 1;
#X connect 88 0 63 0;
#X connect 89 0 68 0;
#X connect 90 0 41 0;
#X connect 90 0 41 1;
#X connect 90 0 61 0;
#X connect 91 0 11 0;
#X connect 92 0 13 0;
#X connect 92 0 13 1;
#X connect 92 0 61 0;
#X connect 93 0 48 0;
#X connect 93 0 48 1;
#X connect 93 0 61 0;
#X connect 94 0 7 0;
#X connect 94 0 7 1;
#X connect 94 0 61 0;
#X connect 95 0 2 0;
